<?xml version="1.0" encoding="UTF-8"?>
<svg id="Layer_1" data-name="Layer 1" xmlns="http://www.w3.org/2000/svg" viewBox="0 0 48 48">
  <defs>
    <style>
      .cls-1, .cls-2 {
        fill: #2db32d;
      }

      .cls-2 {
        fill-rule: evenodd;
      }
    </style>
  </defs>
  <path class="cls-1" d="M27.07,32.24c3.58-1.26,6.14-4.67,6.14-8.68,0-5.08-4.12-9.21-9.21-9.21s-9.21,4.12-9.21,9.21c0,4.01,2.56,7.42,6.14,8.68v9.29h6.14v-9.29Zm-14.03-8.24c0-6.49,4.91-11.4,11.4-11.4,5.61,0,10.52,4.91,10.52,11.4,0,3.85-2.48,7.67-6.14,9.65v7.89c0,.96-.85,1.75-1.73,1.75h-6.16c-.8,0-1.75-.85-1.75-1.75v-7.89c-3.65-1.97-6.14-5.8-6.14-9.65Zm7.89,10.52h6.14v1.75h-6.14v-1.75Zm0,3.51h6.14v1.75h-6.14v-1.75Zm2.63-9.65h.88v6.14h-.88v-6.14Zm-2.63-.88h6.14v.88h-6.14v-.88Z"/>
  <path class="cls-2" d="M8.66,23.12c.48,0,.87,.39,.87,.88s-.4,.88-.87,.88h-3.52c-.48,0-.87-.39-.87-.88s.4-.88,.87-.88h3.52Zm34.2,0c.48,0,.87,.39,.87,.88s-.4,.88-.87,.88h-3.52c-.48,0-.87-.39-.87-.88s.4-.88,.87-.88h3.52ZM25.32,8.23c0,.48-.39,.87-.88,.87s-.88-.4-.88-.87v-3.52c0-.48,.39-.87,.88-.87s.88,.4,.88,.87v3.52Zm-12.14,4.15c.34,.34,.34,.89,0,1.23-.34,.34-.9,.34-1.23,0l-2.49-2.49c-.34-.34-.34-.89,0-1.23,.34-.34,.9-.34,1.23,0,0,0,2.49,2.49,2.49,2.49Zm23.76,1.24c-.34,.34-.89,.34-1.23,0s-.34-.9,0-1.23l2.49-2.49c.34-.34,.89-.34,1.23,0s.34,.9,0,1.23l-2.49,2.49Z"/>
</svg>