<?xml version="1.0" encoding="UTF-8"?>
<svg id="Layer_1" data-name="Layer 1" xmlns="http://www.w3.org/2000/svg" viewBox="0 0 48 48">
  <defs>
    <style>
      .cls-1 {
        fill: #2db32d;
      }
    </style>
  </defs>
  <path class="cls-1" d="M40.29,16.96c-.26,0-.53-.1-.72-.3l-7.33-7.55c-.39-.4-.38-1.04,.02-1.42,.4-.39,1.04-.38,1.42,.02l7.33,7.55c.39,.4,.38,1.04-.02,1.42-.19,.19-.45,.28-.7,.28h0Z"/>
  <path class="cls-1" d="M17.77,38.81c-.26,0-.53-.1-.72-.3l-7.33-7.55c-.39-.4-.38-1.04,.02-1.42,.4-.39,1.04-.38,1.42,.02l7.33,7.55c.39,.4,.38,1.04-.02,1.42-.19,.19-.45,.28-.7,.28h0Z"/>
  <path class="cls-1" d="M6.83,41.97c-.27,0-.54-.11-.73-.31-.26-.27-.35-.66-.22-1.02l3.6-10.71c.05-.16,.14-.29,.25-.4L32.26,7.68c2.48-2.41,6.46-2.35,8.86,.14,2.41,2.48,2.35,6.46-.14,8.86l-22.52,21.85c-.12,.12-.26,.19-.42,.24l-10.93,3.16c-.09,.03-.19,.04-.28,.04Zm4.48-11.16l-2.91,8.65,8.85-2.55L39.59,15.24c1.69-1.64,1.72-4.33,.09-6.01-1.64-1.69-4.33-1.72-6.01-.09L11.32,30.83v-.02Z"/>
</svg>