<?xml version="1.0" encoding="UTF-8"?>
<svg id="Layer_1" data-name="Layer 1" xmlns="http://www.w3.org/2000/svg" viewBox="0 0 48 48">
  <defs>
    <style>
      .cls-1 {
        fill: #2db32d;
        fill-rule: evenodd;
      }
    </style>
  </defs>
  <path class="cls-1" d="M26.64,20.84c-.4,.4-.66,1.02-.66,1.59v13.03l-3.48-3.48v-9.55c0-.56-.26-1.18-.66-1.58L11.91,10.92h24.66l-9.93,9.92ZM9.95,8.13c-2.01,0-2.81,1.94-1.39,3.36l11.31,11.31c-.12-.12-.16-.21-.16-.39v9.76c0,.56,.26,1.18,.65,1.58l6.03,6.03c.88,.88,2.38,.26,2.38-.99V22.42c0,.18-.04,.26-.16,.39l11.31-11.31c1.42-1.42,.62-3.36-1.39-3.36H9.95Z"/>
</svg>