<svg xmlns="http://www.w3.org/2000/svg" version="1.1" xmlns:xlink="http://www.w3.org/1999/xlink"
    width="512" height="512" x="0" y="0" viewBox="0 0 512 512"
    style="enable-background:new 0 0 512 512" xml:space="preserve" class=""><g><path fill="#e6f3e3" d="M453 7.3V192h-71.8v-24.8l-66.8 45.9 66.8 46v-24.9H453v270.5H58.5V345.4h71.9v24.9l66.8-46-66.8-45.9v24.9H58.5V95.6l88.4-88.3z" opacity="1" data-original="#fae8cc" class=""></path><path fill="#e6f3e3" d="m58.5 95.7 88.4-88.4v88.4z" opacity="1" data-original="#f8d69e" class=""></path><path fill="#33cc33" d="M58.6 345.4v42.1H47.7c-23.3 0-42.1-18.8-42.1-42.1z" opacity="1" data-original="#f29344" class=""></path><path fill="#33cc33" d="M130.4 370.3v-24.8H6.5c-.6 0-1-.5-1-1 0-22.8 18.4-41.1 41.1-41.1h83.8v-24.9l66.8 45.9z" opacity="1" data-original="#f9aa6e" class=""></path><path fill="#33cc33" d="M506.1 192h-53v-42H464c23.2 0 42 18.8 42.1 42z" opacity="1" data-original="#f29344" class=""></path><path fill="#33cc33" d="M506.1 193c0 22.8-18.4 41.1-41.1 41.1h-83.8V259l-66.8-45.9 66.8-45.9V192h123.9c.5 0 1 .5 1 1z" opacity="1" data-original="#f9aa6e" class=""></path><path d="M497.8 158.2c-10.2-10.5-24.6-14.9-39-14V7.4c0-3.2-2.6-5.8-5.8-5.8H146.9c-.8.1-1.6.2-2.4.5-.6.3-1.2.6-1.7 1.1L98.7 47.3 54.4 91.6c-.6.6-1 1.3-1.3 2.1s-.4 1.7-.4 2.6v201.3c-70.7-3.5-69.9 98.6 0 95.8v111.4c0 3.2 2.6 5.8 5.8 5.8H453c3.2 0 5.8-2.6 5.8-5.8V240c45.6 4.1 70.7-49.3 39-81.8zm-33.9-2.4c17.3-.3 33.4 13.4 35.9 30.5h-41v-30.5zM106.8 55.5l34.3-34.2v68.6H72.4zM46.7 309.1h83.8c3.2 0 5.8-2.6 5.8-5.8v-13.9l50.8 35-50.8 35v-13.8c0-3.2-2.6-5.8-5.8-5.8H11.6c2.4-17.4 17.2-30.7 35.1-30.7zm1 72.6c-17.4.3-33.4-13.4-35.9-30.5h41v30.5zm399.5 117.2h-383c0-26.7 0-122.8.1-147.7h60.3v19.1c-.1 3.6 3.5 6.5 7 5.6.7-.1 1.4-.4 2-.8l66.8-45.9c3.3-2.1 3.3-7.4 0-9.5l-66.8-45.9c-3.6-2.6-9.2.2-9.1 4.8v19.1H64.3V101.5h82.6c3.2 0 5.8-2.6 5.8-5.8V13.1h294.6v173.1H387v-19.1c.1-4.5-5.4-7.4-9.1-4.8l-66.8 45.9c-3.3 2.1-3.3 7.4 0 9.5l66.8 45.9c.6.4 1.3.7 2.1.8 3.5.9 7.1-2 7-5.6v-19.1h60.3v259.2zm17.7-270.5h-83.8c-3.2 0-5.8 2.6-5.8 5.8v13.9l-50.8-35 50.8-35V192c0 3.2 2.6 5.8 5.8 5.8H500c-2.4 17.3-17.2 30.6-35.1 30.6z" fill="#33cc33" opacity="1" data-original="#000000" class=""></path><path d="M184.2 84.5h210.4c7.5-.1 7.7-11.4 0-11.6H184.2c-7.5.1-7.7 11.4 0 11.6zM117 128.1h277.6c7.5-.1 7.7-11.4 0-11.6H117c-7.5.1-7.7 11.5 0 11.6zM117 173.7h188.4c7.5-.1 7.6-11.4 0-11.6H117c-7.5.1-7.7 11.5 0 11.6zM117 220.9h150.1c7.5 0 7.6-11.5 0-11.6H117c-7.5.1-7.6 11.6 0 11.6zM311.2 259.1c0-3.2-2.6-5.8-5.8-5.8H117c-3.2 0-5.8 2.6-5.8 5.8s2.6 5.8 5.8 5.8h188.4c3.2 0 5.8-2.6 5.8-5.8zM225.9 304.7c0 3.2 2.6 5.8 5.8 5.8h162.9c3.2 0 5.8-2.6 5.8-5.8s-2.6-5.8-5.8-5.8H231.7c-3.2 0-5.8 2.6-5.8 5.8zM394.6 344.5H231.7c-7.5 0-7.6 11.5 0 11.6h162.9c7.5-.1 7.5-11.6 0-11.6zM394.6 390.1H117c-7.5.1-7.7 11.4 0 11.6h277.6c7.4-.2 7.6-11.5 0-11.6zM394.6 435.7H117c-7.5.1-7.7 11.4 0 11.6h277.6c7.4-.2 7.6-11.5 0-11.6z" fill="#33cc33" opacity="1" data-original="#000000" class=""></path></g>
</svg>