<?xml version="1.0" encoding="UTF-8"?>
<svg id="Layer_1" data-name="Layer 1" xmlns="http://www.w3.org/2000/svg" viewBox="0 0 48 48">
  <defs>
    <style>
      .cls-1 {
        fill: #2db32d;
        fill-rule: evenodd;
      }
    </style>
  </defs>
  <path class="cls-1" d="M14.63,9.95c-.19,0-.31,.14-.31,.29v7.85h19.77v-.87h-4.73c-1.44,0-2.64-1.16-2.64-2.62v-4.65H14.63Zm14.42,1.62l3.37,3.32h-3.06c-.19,0-.31-.14-.31-.29v-3.03h0Zm7.37,6.52v-2.04c0-.31-.12-.61-.35-.83l-7.37-7.27c-.22-.22-.51-.34-.82-.34H14.63c-1.44,0-2.64,1.16-2.64,2.62v7.85h-.58c-2.57,0-4.65,2.08-4.65,4.65v8.14c0,2.57,2.08,4.65,4.65,4.65h.58v2.04c0,1.46,1.19,2.62,2.64,2.62h19.15c1.44,0,2.64-1.16,2.64-2.62v-2.04h1.16c2.57,0,4.65-2.08,4.65-4.65v-8.14c0-2.57-2.08-4.65-4.65-4.65h-1.16Zm-25,2.33c-1.28,0-2.33,1.04-2.33,2.33v8.14c0,1.28,1.04,2.33,2.33,2.33h26.17c1.28,0,2.33-1.04,2.33-2.33v-8.14c0-1.28-1.04-2.33-2.33-2.33H11.42Zm22.68,15.12H14.32v2.04c0,.15,.12,.29,.31,.29h19.15c.19,0,.31-.14,.31-.29v-2.04h0Zm-4.91-11.41c.09-1.24,.99-2.62,2.68-2.54,.55,.03,1.22,.25,1.78,.76,.48,.43,.52,1.16,.09,1.64s-1.16,.52-1.64,.09c-.07-.06-.14-.1-.21-.13-.07-.03-.12-.03-.14-.04-.08,0-.1,.02-.12,.04-.04,.04-.11,.15-.12,.34-.02,.34,.14,.81,.74,1.09,1.72,.66,2.5,2.19,2.43,3.61-.08,1.39-1.01,2.85-2.74,3.05-.51,.06-1.1-.09-1.6-.36-.53-.29-1.09-.79-1.39-1.57-.23-.6,.07-1.27,.67-1.5,.6-.23,1.27,.07,1.5,.67,.06,.15,.17,.27,.33,.36,.08,.04,.16,.07,.22,.08,.02,0,.04,0,.04,0,.33-.05,.62-.34,.65-.86,.03-.49-.22-1.05-.95-1.32-.02,0-.04-.02-.07-.03-1.55-.69-2.24-2.1-2.15-3.39h0Zm-13.69-2.39c.56-.32,1.27-.12,1.59,.43l1.32,2.3,1.32-2.3c.32-.56,1.03-.75,1.59-.43s.75,1.03,.43,1.59l-2,3.49,2,3.49c.32,.56,.12,1.27-.43,1.59-.56,.32-1.27,.12-1.59-.43l-1.32-2.3-1.32,2.3c-.32,.56-1.03,.75-1.59,.43s-.75-1.03-.43-1.59l2-3.49-2-3.49c-.32-.56-.12-1.27,.43-1.59h0Zm8.72-.15c.64,0,1.16,.52,1.16,1.16v6.98h1.74c.64,0,1.16,.52,1.16,1.16s-.52,1.16-1.16,1.16h-2.91c-.64,0-1.16-.52-1.16-1.16v-8.14c0-.64,.52-1.16,1.16-1.16h0Z"/>
</svg>