<?xml version="1.0" encoding="UTF-8"?>
<svg id="Layer_1" data-name="Layer 1" xmlns="http://www.w3.org/2000/svg" viewBox="0 0 24.49 8.95">
  <defs>
    <style>
      .cls-1 {
        fill: #000;
      }
    </style>
  </defs>
  <path class="cls-1" d="M4.55,8.72l-1.84-3.37h-.7v3.37H0V.23H3.24c.41,0,.81,.04,1.19,.13,.39,.08,.74,.23,1.04,.43,.31,.2,.55,.46,.74,.79s.28,.74,.28,1.22c0,.58-.16,1.06-.47,1.45-.31,.39-.74,.67-1.3,.84l2.22,3.64h-2.4Zm-.08-5.89c0-.2-.04-.36-.13-.49s-.19-.22-.33-.29-.28-.11-.45-.14c-.16-.02-.32-.04-.48-.04H1.99v1.98h.98c.17,0,.34-.01,.52-.04,.18-.03,.34-.08,.48-.15,.14-.07,.26-.18,.36-.31,.09-.14,.14-.31,.14-.53Z"/>
  <path class="cls-1" d="M14.4,2.84c0,.5-.09,.91-.28,1.25-.18,.34-.43,.61-.74,.82-.31,.21-.67,.36-1.08,.46-.41,.1-.83,.14-1.27,.14h-1.02v3.2h-2.05V.23h3.12c.46,0,.9,.05,1.3,.14s.76,.24,1.06,.44,.54,.47,.71,.8c.17,.33,.26,.74,.26,1.23Zm-2.05,.01c0-.2-.04-.36-.12-.49s-.19-.23-.32-.3c-.14-.07-.29-.12-.46-.14-.17-.02-.35-.04-.53-.04h-.9V3.89h.86c.19,0,.38-.02,.55-.05,.18-.03,.33-.09,.47-.17,.14-.08,.25-.19,.33-.32,.08-.13,.12-.3,.12-.5Z"/>
  <path class="cls-1" d="M24.49,4.44c0,.67-.12,1.29-.35,1.84s-.55,1.03-.97,1.43-.9,.7-1.47,.92c-.57,.22-1.18,.32-1.85,.32s-1.28-.11-1.84-.32c-.56-.22-1.05-.52-1.46-.92s-.73-.87-.97-1.43c-.23-.56-.35-1.17-.35-1.84s.12-1.29,.35-1.84c.23-.55,.55-1.01,.97-1.4,.41-.38,.9-.68,1.46-.89s1.18-.31,1.84-.31,1.28,.1,1.85,.31c.57,.21,1.06,.5,1.47,.89,.41,.38,.73,.85,.97,1.4s.35,1.16,.35,1.84Zm-2.2,0c0-.37-.06-.71-.18-1.03s-.29-.59-.5-.82-.47-.41-.77-.54c-.3-.13-.63-.2-.99-.2s-.69,.07-.98,.2c-.3,.13-.55,.31-.77,.54-.22,.23-.38,.5-.5,.82-.12,.32-.17,.66-.17,1.03s.06,.74,.18,1.06c.12,.32,.29,.6,.5,.83,.21,.23,.47,.41,.76,.55,.3,.13,.62,.2,.98,.2s.69-.07,.98-.2c.3-.13,.55-.31,.77-.55,.22-.23,.38-.51,.5-.83,.12-.32,.18-.68,.18-1.06Z"/>
</svg>