<?xml version="1.0" encoding="UTF-8"?>
<svg id="Layer_1" data-name="Layer 1" xmlns="http://www.w3.org/2000/svg" viewBox="0 0 1076.85 240.44">
  <defs>
    <style>
      .cls-1 {
        fill: #3c3;
      }
    </style>
  </defs>
  <g>
    <path class="cls-1" d="M103.04,41.32c-3.32-4.31-8.01-7.92-14.06-10.83-6.06-2.9-12.16-4.36-18.29-4.36-3.65,0-7.3,.46-10.95,1.37-3.65,.91-6.97,2.33-9.96,4.23-2.99,1.91-5.44,4.4-7.34,7.47-1.91,3.07-2.86,6.76-2.86,11.08,0,3.98,.83,7.39,2.49,10.21,1.66,2.82,3.94,5.23,6.84,7.22,2.9,1.99,6.43,3.73,10.58,5.23,4.15,1.49,8.71,2.99,13.69,4.48,5.64,1.83,11.49,3.9,17.55,6.22,6.06,2.33,11.61,5.39,16.68,9.21,5.06,3.82,9.21,8.63,12.44,14.44,3.24,5.81,4.85,13.03,4.85,21.65,0,9.46-1.74,17.71-5.23,24.77-3.48,7.05-8.13,12.9-13.94,17.55-5.81,4.65-12.61,8.13-20.41,10.45-7.8,2.32-16.02,3.48-24.64,3.48-11.45,0-22.65-2.12-33.6-6.35-10.95-4.23-19.91-10.49-26.88-18.79l22.4-20.91c4.31,5.97,10.08,10.7,17.3,14.19,7.22,3.48,14.31,5.23,21.28,5.23,3.65,0,7.38-.45,11.2-1.37,3.81-.91,7.26-2.45,10.33-4.61,3.07-2.15,5.56-4.85,7.47-8.09,1.91-3.24,2.86-7.26,2.86-12.07s-1.08-8.5-3.24-11.57c-2.16-3.07-5.06-5.73-8.71-7.96-3.65-2.24-7.96-4.19-12.94-5.85-4.98-1.66-10.21-3.4-15.68-5.23-5.31-1.66-10.62-3.65-15.93-5.97-5.31-2.32-10.08-5.39-14.31-9.21-4.23-3.81-7.68-8.5-10.33-14.06-2.66-5.56-3.98-12.48-3.98-20.78,0-8.96,1.87-16.68,5.6-23.15,3.73-6.47,8.63-11.82,14.69-16.05,6.06-4.23,12.94-7.38,20.66-9.46,7.72-2.07,15.56-3.11,23.52-3.11,8.96,0,18.04,1.58,27.25,4.73,9.21,3.15,17.21,7.88,24.02,14.19l-20.41,22.4Z"/>
    <path class="cls-1" d="M154.56,61.23h28.37v19.17h.5c2.65-5.97,7.26-11.24,13.81-15.81,6.55-4.56,14.31-6.84,23.27-6.84,7.8,0,14.48,1.37,20.04,4.11,5.56,2.74,10.12,6.35,13.69,10.83,3.57,4.48,6.18,9.63,7.84,15.43,1.66,5.81,2.49,11.78,2.49,17.92v74.67h-29.87V114.49c0-3.48-.25-7.13-.75-10.95-.5-3.81-1.58-7.26-3.24-10.33-1.66-3.07-3.94-5.6-6.84-7.59-2.91-1.99-6.76-2.99-11.57-2.99s-8.96,.96-12.44,2.86c-3.48,1.91-6.35,4.36-8.59,7.34-2.24,2.99-3.94,6.43-5.1,10.33-1.16,3.9-1.74,7.84-1.74,11.82v65.71h-29.87V61.23Z"/>
    <path class="cls-1" d="M373.59,165.52h-.75c-2.99,5.31-7.8,9.67-14.44,13.07-6.64,3.4-14.19,5.1-22.65,5.1-4.81,0-9.83-.62-15.06-1.87-5.23-1.24-10.04-3.32-14.44-6.22-4.4-2.9-8.05-6.72-10.95-11.45-2.91-4.73-4.36-10.58-4.36-17.55,0-8.96,2.53-16.09,7.59-21.41,5.06-5.31,11.57-9.37,19.54-12.2,7.96-2.82,16.8-4.69,26.51-5.6,9.71-.91,19.2-1.37,28.5-1.37v-2.99c0-7.47-2.7-12.98-8.09-16.55-5.39-3.57-11.82-5.35-19.29-5.35-6.31,0-12.36,1.33-18.17,3.98-5.81,2.66-10.62,5.89-14.44,9.71l-15.43-18.17c6.8-6.3,14.64-11.03,23.52-14.19,8.88-3.15,17.88-4.73,27.01-4.73,10.62,0,19.37,1.49,26.26,4.48,6.88,2.99,12.32,6.89,16.3,11.7,3.98,4.81,6.76,10.21,8.34,16.18,1.58,5.97,2.36,11.95,2.36,17.92v72.68h-27.88v-15.18Zm-.5-39.33h-6.72c-4.81,0-9.87,.21-15.18,.62-5.31,.42-10.2,1.33-14.69,2.74-4.48,1.41-8.21,3.4-11.2,5.97-2.99,2.57-4.48,6.1-4.48,10.58,0,2.82,.62,5.19,1.87,7.09,1.24,1.91,2.86,3.45,4.85,4.6,1.99,1.16,4.23,1.99,6.72,2.49,2.49,.5,4.98,.75,7.47,.75,10.29,0,18.08-2.74,23.4-8.21,5.31-5.48,7.96-12.94,7.96-22.4v-4.23Z"/>
    <path class="cls-1" d="M464.94,61.23v16.68h.75c1.49-2.32,3.44-4.69,5.85-7.09s5.35-4.56,8.84-6.47c3.48-1.91,7.42-3.48,11.82-4.73,4.4-1.24,9.33-1.87,14.81-1.87,8.46,0,16.26,1.62,23.4,4.85,7.13,3.24,13.27,7.68,18.42,13.32,5.14,5.64,9.12,12.28,11.95,19.91,2.82,7.63,4.23,15.85,4.23,24.64s-1.37,17.05-4.11,24.77-6.64,14.44-11.7,20.16c-5.06,5.73-11.2,10.29-18.42,13.69-7.22,3.4-15.39,5.1-24.52,5.1-8.46,0-16.22-1.74-23.27-5.23-7.06-3.48-12.49-8.21-16.3-14.19h-.5v75.67h-29.87V61.23h28.62Zm69.69,59.24c0-4.64-.71-9.25-2.12-13.81-1.41-4.56-3.53-8.67-6.35-12.32-2.82-3.65-6.39-6.6-10.7-8.84-4.32-2.24-9.38-3.36-15.18-3.36-5.48,0-10.37,1.16-14.69,3.48-4.32,2.33-8.01,5.31-11.08,8.96-3.07,3.65-5.39,7.8-6.97,12.45-1.58,4.65-2.36,9.29-2.36,13.94s.79,9.25,2.36,13.81c1.58,4.57,3.9,8.67,6.97,12.32,3.07,3.65,6.76,6.6,11.08,8.84,4.31,2.24,9.21,3.36,14.69,3.36,5.81,0,10.87-1.16,15.18-3.48,4.31-2.32,7.88-5.31,10.7-8.96,2.82-3.65,4.94-7.8,6.35-12.44,1.41-4.64,2.12-9.29,2.12-13.94Z"/>
    <path d="M722.55,45.8c-4.65-6.3-10.7-10.91-18.17-13.81-7.47-2.9-14.77-4.36-21.9-4.36-9.13,0-17.42,1.66-24.89,4.98-7.47,3.32-13.9,7.88-19.29,13.69-5.39,5.81-9.54,12.61-12.45,20.41-2.91,7.8-4.36,16.26-4.36,25.39,0,9.63,1.41,18.42,4.23,26.38,2.82,7.96,6.84,14.81,12.07,20.53,5.23,5.72,11.49,10.17,18.79,13.32,7.3,3.15,15.51,4.73,24.64,4.73s17.83-1.87,25.14-5.6c7.3-3.73,13.19-8.67,17.67-14.81l25.14,17.67c-7.8,9.79-17.34,17.38-28.62,22.77-11.29,5.39-24.48,8.09-39.58,8.09-13.78,0-26.43-2.28-37.96-6.84-11.54-4.56-21.45-10.95-29.74-19.17-8.3-8.21-14.77-18-19.41-29.37-4.65-11.36-6.97-23.93-6.97-37.71s2.45-26.84,7.34-38.21c4.89-11.36,11.61-21.03,20.16-29,8.54-7.96,18.62-14.1,30.24-18.42,11.61-4.31,24.23-6.47,37.83-6.47,5.64,0,11.53,.54,17.67,1.62,6.14,1.08,12.03,2.74,17.67,4.98,5.64,2.24,10.95,5.02,15.93,8.34,4.98,3.32,9.21,7.3,12.69,11.95l-23.89,18.92Z"/>
    <path d="M757.15,120.47c0-9.46,1.7-18.05,5.1-25.76,3.4-7.72,8-14.31,13.81-19.79,5.81-5.48,12.69-9.71,20.66-12.69s16.43-4.48,25.39-4.48,17.42,1.49,25.39,4.48,14.85,7.22,20.66,12.69c5.81,5.48,10.41,12.07,13.81,19.79,3.4,7.72,5.1,16.3,5.1,25.76s-1.7,18.09-5.1,25.89c-3.4,7.8-8.01,14.48-13.81,20.04-5.81,5.56-12.69,9.92-20.66,13.07s-16.43,4.73-25.39,4.73-17.42-1.58-25.39-4.73-14.85-7.51-20.66-13.07c-5.81-5.56-10.42-12.24-13.81-20.04-3.4-7.8-5.1-16.43-5.1-25.89Zm30.37,0c0,4.65,.7,9.29,2.12,13.94,1.41,4.65,3.52,8.8,6.35,12.44,2.82,3.65,6.39,6.64,10.7,8.96,4.31,2.33,9.46,3.48,15.43,3.48s11.11-1.16,15.43-3.48c4.31-2.32,7.88-5.31,10.7-8.96,2.82-3.65,4.94-7.8,6.35-12.44,1.41-4.64,2.12-9.29,2.12-13.94s-.71-9.25-2.12-13.81c-1.41-4.56-3.53-8.67-6.35-12.32-2.82-3.65-6.39-6.6-10.7-8.84-4.32-2.24-9.46-3.36-15.43-3.36s-11.12,1.12-15.43,3.36c-4.32,2.24-7.88,5.19-10.7,8.84-2.82,3.65-4.94,7.76-6.35,12.32-1.41,4.57-2.12,9.17-2.12,13.81Z"/>
    <path d="M915.94,61.23h28.62v19.91h.5c3.32-6.97,7.96-12.61,13.94-16.93,5.97-4.31,12.94-6.47,20.91-6.47,1.16,0,2.4,.04,3.73,.12,1.33,.09,2.49,.29,3.48,.62v27.38c-1.99-.5-3.69-.83-5.1-1-1.41-.16-2.78-.25-4.11-.25-6.81,0-12.28,1.24-16.43,3.73-4.15,2.49-7.39,5.48-9.71,8.96-2.33,3.48-3.9,7.06-4.73,10.7-.83,3.65-1.24,6.56-1.24,8.71v63.97h-29.87V61.23Z"/>
  </g>
  <path d="M1076.85,75.2c0,5.48-1.05,10.61-3.15,15.39-2.1,4.78-4.93,8.92-8.48,12.42-3.56,3.5-7.76,6.27-12.59,8.31-4.84,2.04-10,3.06-15.48,3.06s-10.67-1.02-15.57-3.06c-4.9-2.04-9.16-4.81-12.77-8.31-3.62-3.5-6.47-7.64-8.57-12.42-2.1-4.78-3.15-9.91-3.15-15.39s1.05-10.64,3.15-15.48c2.1-4.84,4.95-9.04,8.57-12.59,3.61-3.56,7.87-6.38,12.77-8.48,4.9-2.1,10.08-3.15,15.57-3.15s10.64,1.05,15.48,3.15c4.84,2.1,9.03,4.93,12.59,8.48,3.55,3.56,6.38,7.76,8.48,12.59,2.1,4.84,3.15,10,3.15,15.48Zm-6.3,0c0-4.66-.87-9.03-2.62-13.12-1.75-4.08-4.14-7.67-7.17-10.76-3.03-3.09-6.56-5.51-10.58-7.26s-8.37-2.62-13.03-2.62-9.04,.87-13.12,2.62c-4.08,1.75-7.67,4.17-10.76,7.26s-5.51,6.68-7.26,10.76c-1.75,4.08-2.62,8.46-2.62,13.12s.87,8.86,2.62,12.94c1.75,4.08,4.17,7.64,7.26,10.67,3.09,3.03,6.67,5.42,10.76,7.17,4.08,1.75,8.45,2.62,13.12,2.62s9.01-.87,13.03-2.62,7.55-4.14,10.58-7.17c3.03-3.03,5.42-6.59,7.17-10.67,1.75-4.08,2.62-8.4,2.62-12.94Zm-25.01,21.86l-8.75-16.79h-5.07v16.79h-12.42V51.59h19.59c2.21,0,4.43,.24,6.65,.7,2.21,.47,4.22,1.25,6.03,2.36,1.81,1.11,3.26,2.6,4.37,4.46,1.11,1.87,1.66,4.14,1.66,6.82,0,3.03-.85,5.63-2.54,7.78-1.69,2.16-3.88,3.7-6.56,4.63l11.54,18.71h-14.52Zm-1.05-30.96c0-1.51-.67-2.62-2.01-3.32-1.34-.7-2.71-1.05-4.11-1.05h-6.65v9.44h6.65c1.63,0,3.06-.46,4.29-1.4,1.22-.93,1.84-2.16,1.84-3.67Z"/>
</svg>