<?xml version="1.0" encoding="UTF-8"?>
<svg id="Layer_1" data-name="Layer 1" xmlns="http://www.w3.org/2000/svg" viewBox="0 0 83.33 82.38">
  <defs>
    <style>
      .cls-1 {
        fill: #121212;
      }
    </style>
  </defs>
  <path class="cls-1" d="M51.2,29.67l4.74-4.74c1.73,1.32,4.16,1.16,5.7-.38h0c1.7-1.71,1.7-4.46,0-6.17L44.55,1.29c-1.69-1.71-4.44-1.73-6.15-.04-1.56,1.54-1.73,4-.4,5.74L21.44,23.55c-1.91-1.46-4.64-1.1-6.1,.81-1.33,1.74-1.16,4.2,.4,5.74l17.09,17.09c1.7,1.7,4.46,1.71,6.17,0,0,0,0,0,0,0h0c1.54-1.53,1.71-3.98,.38-5.7l4.74-4.74,27.55,29.94c1.23,1.35,2.97,2.14,4.8,2.17h.15c3.7,0,6.71-2.98,6.71-6.69,0-1.89-.79-3.69-2.18-4.96l-29.95-27.54Zm-13.9,9.65l-13.7-13.7L40.08,9.16l13.66,13.69-16.44,16.47ZM40.51,3.46c.53-.53,1.39-.53,1.92,0l17.09,17c.55,.53,.57,1.41,.03,1.97-.53,.55-1.41,.57-1.96,.03l-.63-.63h0L40.51,5.34c-.53-.53-.53-1.39,0-1.92v.04Zm-3.63,41.6h0c-.54,.51-1.38,.51-1.92,0L17.87,27.98c-.53-.53-.53-1.4,0-1.93s1.4-.53,1.93,0l17.08,17.09c.53,.53,.53,1.39,0,1.92Zm42.35,19.72c-.71,.72-1.69,1.11-2.7,1.08-1.01-.02-1.97-.45-2.65-1.2l-27.63-30,2.83-2.83,30.04,27.63c1.51,1.38,1.62,3.72,.24,5.23-.04,.04-.08,.08-.12,.12v-.03Z"/>
  <path class="cls-1" d="M44.01,78.88v-2.42c0-1.93-1.57-3.5-3.5-3.5h-3.45c-.73-3.84-4.09-6.62-8-6.6H14.91c-3.91-.02-7.27,2.76-8,6.6H3.5c-1.93,0-3.5,1.57-3.5,3.5v2.42c0,1.93,1.57,3.5,3.5,3.5H40.5c1.93,0,3.5-1.56,3.51-3.49,0,0,0,0,0-.01Zm-29.1-9.52h14.2c2.23,0,4.2,1.47,4.85,3.6H10.06c.65-2.13,2.62-3.59,4.85-3.6Zm-11.9,9.52v-2.42c0-.28,.22-.5,.5-.5H40.51c.28,0,.5,.22,.5,.5v2.42c0,.28-.22,.5-.5,.5H3.51c-.28,0-.5-.21-.51-.49,0,0,0,0,0-.01h.01Z"/>
</svg>